<svg width="1387" height="613" viewBox="0 0 1387 613" fill="none" xmlns="http://www.w3.org/2000/svg">
<path d="M126.904 81C116.404 96.3333 99.4041 139.5 126.904 170C143.348 188.238 199.904 154 220.904 61" stroke="#FFF8F8" stroke-opacity="0.15" stroke-width="4"/>
<path d="M450.5 47.5C440 81.6667 425.3 159.7 450.5 198.5C475.7 237.3 515.667 126 532.5 65.5" stroke="#FFF8F8" stroke-opacity="0.15" stroke-width="4"/>
<path d="M357 550C354.833 464.167 361.7 308 406.5 370C451.3 432 466.167 510.833 468 542.5" stroke="#FFF8F8" stroke-opacity="0.15" stroke-width="4"/>
<path d="M587.632 78C555.565 175.953 508.051 387.612 574.536 450.625C641.022 513.638 827.214 274.243 912 146.668" stroke="#FFF8F8" stroke-opacity="0.15" stroke-width="4"/>
<path d="M645.112 96C622.05 163.307 582.844 310.872 610.519 362.678C638.194 414.484 765.037 237.753 825 142.911" stroke="#FFF8F8" stroke-opacity="0.15" stroke-width="4"/>
<path d="M693.325 114C675.902 153.483 646.284 235.864 667.191 249.52C688.098 263.175 749.775 179.001 778 135.207" stroke="#FFF8F8" stroke-opacity="0.15" stroke-width="4"/>
<path d="M1008 132.5C993 206.167 938.1 372 838.5 446" stroke="#FFF8F8" stroke-opacity="0.15" stroke-width="4"/>
<path d="M1195 48C1193.83 132.5 1153.8 333.2 1003 460" stroke="#FFF8F8" stroke-opacity="0.15" stroke-width="4"/>
<path d="M329.5 46.5C294.833 170.5 235.9 442.8 277.5 540" stroke="#FFF8F8" stroke-opacity="0.15" stroke-width="4"/>
<path d="M98 500C165.251 388.498 292.827 143.395 265.124 55" stroke="#FFF8F8" stroke-opacity="0.15" stroke-width="4"/>
<path d="M2 112C58.8525 154.226 147.129 287.943 45.4146 485" stroke="#FFF8F8" stroke-opacity="0.15" stroke-width="4"/>
<path d="M1380.5 1.5C1338.33 73.3333 1253.7 244.2 1252.5 353C1251.3 461.8 1214.67 528.333 1196.5 548" stroke="#FFF8F8" stroke-opacity="0.15" stroke-width="4"/>
<path d="M1385 235C1357.5 291.333 1307.9 421.6 1329.5 492C1351.1 562.4 1311.83 600.333 1289.5 610.5" stroke="#FFF8F8" stroke-opacity="0.15" stroke-width="4"/>
</svg>
